HIERARCHY
ROOT Hips
{
    OFFSET 0.000000 0.000000 0.000000
    CHANNELS 6 Xposition Yposition Zposition Zrotation Xrotation Yrotation
    JOINT Spine
    {
        OFFSET -0.000000 0.070388 0.000000
        CHANNELS 3 Zrotation Xrotation Yrotation
        JOINT Spine1
        {
            OFFSET -0.000000 0.188704 0.000000
            CHANNELS 3 Zrotation Xrotation Yrotation
            JOINT Neck
            {
                OFFSET -0.000000 0.205872 0.000000
                CHANNELS 3 Zrotation Xrotation Yrotation
                JOINT Head
                {
                    OFFSET -0.000000 0.093136 0.017168
                    CHANNELS 3 Zrotation Xrotation Yrotation
                    End Site
                    {
                        OFFSET -0.000000 0.171679 0.000000
                    }
                }
            }
            JOINT LeftShoulder
            {
                OFFSET 0.034319 0.171129 0.000640
                CHANNELS 3 Zrotation Xrotation Yrotation
                JOINT LeftArm
                {
                    OFFSET 0.104933 0.000000 0.000000
                    CHANNELS 3 Zrotation Xrotation Yrotation
                    JOINT LeftForeArm
                    {
                        OFFSET 0.282381 0.000000 0.000000
                        CHANNELS 3 Zrotation Xrotation Yrotation
                        JOINT LeftHand
                        {
                            OFFSET 0.191019 0.000000 0.000000
                            CHANNELS 3 Zrotation Xrotation Yrotation
                            End Site
                            {
                                OFFSET 0.000000 -0.128759 0.000000
                            }
                        }
                    }
                }
            }
            JOINT RightShoulder
            {
                OFFSET -0.034352 0.171129 0.000640
                CHANNELS 3 Zrotation Xrotation Yrotation
                JOINT RightArm
                {
                    OFFSET -0.104933 0.000000 0.000000
                    CHANNELS 3 Zrotation Xrotation Yrotation
                    JOINT RightForeArm
                    {
                        OFFSET -0.282381 0.000000 0.000000
                        CHANNELS 3 Zrotation Xrotation Yrotation
                        JOINT RightHand
                        {
                            OFFSET -0.191019 0.000000 0.000000
                            CHANNELS 3 Zrotation Xrotation Yrotation
                            End Site
                            {
                                OFFSET -0.000000 -0.128759 0.000000
                            }
                        }
                    }
                }
            }
        }
    }
    JOINT LeftUpLeg
    {
        OFFSET 0.085839 0.000000 0.000000
        CHANNELS 3 Zrotation Xrotation Yrotation
        JOINT LeftLeg
        {
            OFFSET -0.000000 -0.365643 0.000000
            CHANNELS 3 Zrotation Xrotation Yrotation
            JOINT LeftFoot
            {
                OFFSET -0.000000 -0.393614 0.000000
                CHANNELS 3 Zrotation Xrotation Yrotation
                JOINT LeftToeBase
                {
                    OFFSET -0.000000 -0.055796 0.128759
                    CHANNELS 3 Zrotation Xrotation Yrotation
                    End Site
                    {
                        OFFSET -0.000000 0.000000 0.034336
                    }
                }
            }
        }
    }
    JOINT RightUpLeg
    {
        OFFSET -0.085839 0.000000 0.000000
        CHANNELS 3 Zrotation Xrotation Yrotation
        JOINT RightLeg
        {
            OFFSET -0.000000 -0.365643 0.000000
            CHANNELS 3 Zrotation Xrotation Yrotation
            JOINT RightFoot
            {
                OFFSET -0.000000 -0.393614 0.000000
                CHANNELS 3 Zrotation Xrotation Yrotation
                JOINT RightToeBase
                {
                    OFFSET -0.000000 -0.055796 0.128759
                    CHANNELS 3 Zrotation Xrotation Yrotation
                    End Site
                    {
                        OFFSET -0.000000 0.000000 0.034336
                    }
                }
            }
        }
    }
}
MOTION
Frames:    8
Frame Time:    0.010000
-0.506263    0.830374    -0.109082    -6.407618    -1.216669    70.208344    9.271310    -2.482565    8.661296    -9.250527    0.053712    2.822439    4.121062    1.857560    7.119181    -0.289681    4.436766    8.019653    17.506464    1.054892    3.671628    -21.729477    -9.942122    4.268854    1.038684    -1.496394    -8.654172    95.175598    2.189527    1.318882    -9.256884    4.877131    -2.330644    19.838863    -11.046976    -11.072886    0.901585    11.734982    11.071098    -92.686661    3.779203    11.738047    5.266383    1.415966    10.904709    0.405992    -3.710683    4.199404    -0.973776    -3.109869    23.947626    0.000000    0.000000    0.000000    0.745111    -2.303028    4.441171    -0.583282    2.391998    -4.843169    4.914710    -1.975973    -22.413155    0.000000    0.000000    0.000000    
-0.506255    0.830414    -0.109164    -6.405956    -1.219010    70.250679    9.299408    -2.466626    8.679583    -9.259274    0.065247    2.829695    4.080934    1.848526    7.117290    -0.311271    4.408632    8.014872    17.491543    1.053117    3.671711    -21.620544    -10.405633    4.319697    0.770479    -1.228772    -8.786563    95.321907    2.241388    1.065422    -9.251214    4.871072    -2.330122    19.846821    -11.027593    -11.048376    0.875704    11.726906    11.080847    -92.752480    3.735953    11.733511    5.266540    1.409788    10.895334    0.396771    -3.714053    4.190265    -0.958380    -3.092859    23.925791    0.000000    0.000000    0.000000    0.740628    -2.287380    4.430988    -0.583482    2.369997    -4.852175    4.899380    -1.944759    -22.433802    0.000000    0.000000    0.000000    
-0.506267    0.830443    -0.109250    -6.411509    -1.217113    70.289154    9.324737    -2.450127    8.699913    -9.268190    0.057124    2.836088    4.043013    1.853819    7.119698    -0.327185    4.380439    8.014424    17.477715    1.061750    3.664827    -21.632771    -10.397440    4.296443    0.747621    -1.220808    -8.764790    95.329315    2.265029    1.058112    -9.246493    4.859284    -2.316036    19.847979    -11.010584    -11.048479    0.860633    11.681669    11.111744    -92.869698    3.703405    11.692476    5.262774    1.393948    10.896311    0.395465    -3.716536    4.161302    -1.004801    -3.083562    23.917295    0.000000    0.000000    0.000000    0.732821    -2.283473    4.463904    -0.587707    2.353402    -4.869562    4.951196    -1.950314    -22.476097    0.000000    0.000000    0.000000    
-0.506248    0.830479    -0.109347    -6.406081    -1.213052    70.327881    9.343988    -2.426799    8.716841    -9.276570    0.054184    2.842007    3.998212    1.856662    7.114344    -0.324136    4.346098    8.001696    17.461607    1.061349    3.661720    -21.653088    -10.341930    4.268666    0.747959    -1.227929    -8.727901    95.307343    2.247595    1.066678    -9.250191    4.832688    -2.296957    19.863590    -10.996904    -11.054161    0.811085    11.688908    11.163844    -92.818123    3.718761    11.702807    5.249878    1.392817    10.886829    0.392266    -3.726519    4.149207    -1.009100    -3.078606    23.911903    0.000000    0.000000    0.000000    0.720432    -2.267017    4.452061    -0.584974    2.333295    -4.896120    4.958980    -1.950755    -22.497671    0.000000    0.000000    0.000000    
-0.506248    0.830492    -0.109445    -6.410448    -1.206935    70.365616    9.370089    -2.414850    8.731448    -9.296892    0.052610    2.846931    3.970222    1.858463    7.104087    -0.345342    4.317627    7.990388    17.454681    1.060914    3.661763    -21.672283    -10.307978    4.244150    0.729577    -1.229011    -8.698901    95.328293    2.248452    1.068914    -9.242780    4.809567    -2.267689    19.881346    -10.963289    -11.044065    0.781431    11.665721    11.171497    -92.772415    3.709374    11.680670    5.237565    1.374990    10.892170    0.394867    -3.726407    4.128995    -1.009990    -3.065549    23.892965    0.000000    0.000000    0.000000    0.712619    -2.266509    4.461915    -0.604222    2.323951    -4.897168    4.969496    -1.917640    -22.507526    0.000000    0.000000    0.000000    
-0.506230    0.830519    -0.109550    -6.408112    -1.204386    70.402565    9.396571    -2.396543    8.745074    -9.315685    0.048770    2.851499    3.937610    1.858341    7.079601    -0.350973    4.302642    7.961105    17.448057    1.066877    3.659594    -21.688253    -10.312190    4.225859    0.704688    -1.211464    -8.688835    95.337830    2.251525    1.052977    -9.230469    4.818974    -2.244935    19.884188    -10.996328    -11.026397    0.761937    11.660713    11.194891    -92.817169    3.703326    11.678667    5.222011    1.372743    10.892524    0.402134    -3.738524    4.119753    -1.002132    -3.033913    23.853167    0.000000    0.000000    0.000000    0.699369    -2.256230    4.460600    -0.601265    2.309088    -4.907279    4.958509    -1.908477    -22.532330    0.000000    0.000000    0.000000    
-0.506198    0.830552    -0.109660    -6.399305    -1.205578    70.437698    9.421266    -2.373516    8.757030    -9.325959    0.050365    2.856112    3.895913    1.843510    7.041773    -0.348583    4.307187    7.914895    17.437311    1.066778    3.654742    -21.712685    -10.289631    4.216033    0.697651    -1.200881    -8.687954    95.318855    2.268363    1.042466    -9.222719    4.803912    -2.223907    19.874681    -11.004045    -11.015944    0.766254    11.640434    11.196310    -92.847885    3.655509    11.657769    5.210145    1.380514    10.891161    0.399808    -3.753202    4.103698    -1.008848    -3.024752    23.848829    0.000000    0.000000    0.000000    0.689830    -2.235346    4.463332    -0.609412    2.293175    -4.913498    4.991058    -1.896094    -22.547264    0.000000    0.000000    0.000000    
-0.506186    0.830564    -0.109773    -6.404085    -1.199851    70.476929    9.442402    -2.369141    8.768850    -9.331719    0.052863    2.860236    3.839485    1.838897    6.992366    -0.333991    4.287124    7.852808    17.422583    1.070378    3.649761    -21.735462    -10.284840    4.206021    0.685960    -1.199138    -8.702478    95.345703    2.293641    1.039796    -9.212465    4.791039    -2.199037    19.871628    -10.983432    -10.999329    0.747994    11.639596    11.219734    -92.757072    3.684580    11.656326    5.193195    1.368637    10.891811    0.411159    -3.764370    4.070891    -1.010542    -3.007397    23.835894    0.000000    0.000000    0.000000    0.682240    -2.232367    4.454587    -0.623054    2.279249    -4.916003    4.983074    -1.881426    -22.559433    0.000000    0.000000    0.000000    
